<?xml version="1.0" standalone="no"?>
<!DOCTYPE svg PUBLIC "-//W3C//DTD SVG 20010904//EN"
 "http://www.w3.org/TR/2001/REC-SVG-20010904/DTD/svg10.dtd">
<svg version="1.0" xmlns="http://www.w3.org/2000/svg"
 width="28.000000pt" height="27.000000pt" viewBox="0 0 28.000000 27.000000"
 preserveAspectRatio="xMidYMid meet">

<g transform="translate(0.000000,27.000000) scale(0.100000,-0.100000)"
fill="#000000" stroke="none">
<path d="M100 230 c-23 -23 -25 -64 -5 -100 20 -36 20 -37 -29 -59 -41 -19
-62 -42 -49 -55 4 -3 62 -6 130 -6 113 0 124 2 121 17 -2 10 -22 27 -46 39
-56 28 -56 27 -38 63 24 45 21 86 -9 105 -32 21 -51 20 -75 -4z m63 -4 c30
-23 12 -136 -23 -136 -35 0 -54 121 -22 139 22 13 23 13 45 -3z m-33 -173 c0
-22 -2 -25 -10 -13 -13 20 -13 40 0 40 6 0 10 -12 10 -27z m40 15 c0 -7 -5
-20 -10 -28 -8 -12 -10 -9 -10 13 0 15 5 27 10 27 6 0 10 -6 10 -12z"/>
</g>
</svg>
